<svg width="120" height="39" viewBox="0 0 120 39" fill="none" xmlns="http://www.w3.org/2000/svg">
<path fill-rule="evenodd" clip-rule="evenodd" d="M7.84615 0C3.51284 0 0 3.51284 0 7.84615V31.1538C0 35.4872 3.51284 39 7.84615 39L62.7956 39L72 19.5L62.7956 0H7.84615ZM62 26.7258V23.7718H55.6154L58.0513 20.336C58.5983 19.7021 59.0897 19.0893 59.5256 18.4976C59.9615 17.906 60.3291 17.327 60.6282 16.7607C60.9273 16.1859 61.1581 15.6112 61.3205 15.0364C61.4829 14.4532 61.5641 13.8574 61.5641 13.2488C61.5641 12.1585 61.3633 11.2203 60.9615 10.4342C60.5684 9.64818 59.9829 9.04807 59.2051 8.63391C58.4274 8.2113 57.4701 8 56.3333 8C55.1624 8 54.1581 8.2747 53.3205 8.82409C52.4915 9.36503 51.8462 10.0961 51.3846 11.0174C50.9316 11.9387 50.7051 12.953 50.7051 14.0602H54.3077C54.3077 13.4686 54.3761 12.9403 54.5128 12.4754C54.6581 12.0021 54.8761 11.6302 55.1667 11.3597C55.4573 11.0893 55.8248 10.954 56.2692 10.954C56.6368 10.954 56.9444 11.0639 57.1923 11.2837C57.4487 11.495 57.641 11.7993 57.7692 12.1965C57.8974 12.5853 57.9615 13.0502 57.9615 13.5911C57.9615 13.9546 57.9017 14.3391 57.7821 14.7448C57.6624 15.1421 57.4658 15.5943 57.1923 16.1014C56.9188 16.6001 56.5385 17.1833 56.0513 17.851L51 24.2029V26.7258H62ZM17.3077 8.26624H18.2436L24.1282 26.7258H20.141L19.128 22.9223H13.9681L12.9615 26.7258H9L14.8333 8.26624H15.7308H17.3077ZM14.7834 19.8415H18.3075L16.5399 13.2045L14.7834 19.8415ZM28.7051 25.5982V32H25.1282V13.0079H28.4359L28.5643 14.2655C28.871 13.8332 29.2257 13.4901 29.6282 13.2361C30.1325 12.9149 30.7308 12.7544 31.4231 12.7544C32.1752 12.7544 32.8291 12.8896 33.3846 13.1601C33.9487 13.4305 34.4145 13.8405 34.7821 14.3899C35.1581 14.9308 35.4402 15.6197 35.6282 16.4564C35.8162 17.2932 35.9103 18.2736 35.9103 19.3978V20.3106C35.9103 21.384 35.8162 22.3349 35.6282 23.1632C35.4402 23.9831 35.1581 24.6804 34.7821 25.2551C34.4145 25.8214 33.953 26.2525 33.3974 26.5483C32.8419 26.8357 32.1923 26.9794 31.4487 26.9794C30.7564 26.9794 30.1581 26.8188 29.6538 26.4976C29.298 26.261 28.9817 25.9612 28.7051 25.5982ZM28.7051 23.0908C28.828 23.312 28.9818 23.501 29.1667 23.6577C29.4658 23.9028 29.8718 24.0254 30.3846 24.0254C30.7521 24.0254 31.0556 23.9493 31.2949 23.7971C31.5427 23.645 31.7436 23.4168 31.8974 23.1125C32.0513 22.8082 32.1581 22.4237 32.2179 21.9588C32.2778 21.4939 32.3077 20.9445 32.3077 20.3106V19.3978C32.3077 18.7385 32.2735 18.1764 32.2051 17.7116C32.1368 17.2467 32.0256 16.8664 31.8718 16.5705C31.718 16.2747 31.5171 16.0592 31.2692 15.9239C31.0214 15.7887 30.7179 15.7211 30.359 15.7211C30.0085 15.7211 29.7009 15.7887 29.4359 15.9239C29.1795 16.0592 28.9701 16.2578 28.8077 16.5198C28.7716 16.5762 28.7374 16.6354 28.7051 16.6976V23.0908ZM41.7051 32V25.5982C41.9817 25.9612 42.298 26.261 42.6539 26.4976C43.1581 26.8188 43.7564 26.9794 44.4487 26.9794C45.1923 26.9794 45.8419 26.8357 46.3974 26.5483C46.953 26.2525 47.4145 25.8214 47.7821 25.2551C48.1581 24.6804 48.4402 23.9831 48.6282 23.1632C48.8162 22.3349 48.9103 21.384 48.9103 20.3106V19.3978C48.9103 18.2736 48.8162 17.2932 48.6282 16.4564C48.4402 15.6197 48.1581 14.9308 47.7821 14.3899C47.4145 13.8405 46.9487 13.4305 46.3846 13.1601C45.8291 12.8896 45.1752 12.7544 44.4231 12.7544C43.7308 12.7544 43.1325 12.9149 42.6282 13.2361C42.2257 13.4901 41.871 13.8332 41.5643 14.2655L41.4359 13.0079H38.1282V32H41.7051ZM42.1667 23.6577C41.9818 23.501 41.828 23.312 41.7051 23.0908V16.6976C41.7374 16.6354 41.7716 16.5762 41.8077 16.5198C41.9701 16.2578 42.1795 16.0592 42.4359 15.9239C42.7009 15.7887 43.0085 15.7211 43.359 15.7211C43.718 15.7211 44.0214 15.7887 44.2692 15.9239C44.5171 16.0592 44.718 16.2747 44.8718 16.5705C45.0256 16.8664 45.1368 17.2467 45.2051 17.7116C45.2735 18.1764 45.3077 18.7385 45.3077 19.3978V20.3106C45.3077 20.9445 45.2778 21.4939 45.2179 21.9588C45.1581 22.4237 45.0513 22.8082 44.8974 23.1125C44.7436 23.4168 44.5427 23.645 44.2949 23.7971C44.0556 23.9493 43.7521 24.0254 43.3846 24.0254C42.8718 24.0254 42.4658 23.9028 42.1667 23.6577Z" fill="#27212A"/>
<path fill-rule="evenodd" clip-rule="evenodd" d="M65 0H112.154C116.487 0 120 3.51284 120 7.84615V31.1538C120 35.4872 116.487 39 112.154 39H65L74.0665 19.5L65 0ZM85.2468 11.1154V26.6667H81.5319V11.1154H77V8H81.5319H85.2468H89.8681V11.1154H85.2468ZM88.8213 20.2051V19.2692C88.8213 18.1838 88.9489 17.2222 89.2043 16.3846C89.4681 15.547 89.8426 14.8462 90.3277 14.2821C90.8128 13.7094 91.3957 13.2778 92.0766 12.9872C92.766 12.688 93.5362 12.5385 94.3872 12.5385C95.2468 12.5385 96.017 12.688 96.6979 12.9872C97.3872 13.2778 97.9745 13.7094 98.4596 14.2821C98.9532 14.8462 99.3319 15.547 99.5957 16.3846C99.8596 17.2222 99.9915 18.1838 99.9915 19.2692V20.2051C99.9915 21.2821 99.8596 22.2393 99.5957 23.0769C99.3319 23.9145 98.9532 24.6197 98.4596 25.1923C97.9745 25.765 97.3915 26.1966 96.7106 26.4872C96.0298 26.7778 95.2638 26.9231 94.4128 26.9231C93.5617 26.9231 92.7915 26.7778 92.1021 26.4872C91.4213 26.1966 90.834 25.765 90.3404 25.1923C89.8468 24.6197 89.4681 23.9145 89.2043 23.0769C88.9489 22.2393 88.8213 21.2821 88.8213 20.2051ZM92.3957 19.2692V20.2051C92.3957 20.8462 92.4383 21.4017 92.5234 21.8718C92.617 22.3419 92.7489 22.7308 92.9191 23.0385C93.0979 23.3462 93.3106 23.5726 93.5574 23.7179C93.8043 23.8632 94.0894 23.9359 94.4128 23.9359C94.7362 23.9359 95.0255 23.8632 95.2809 23.7179C95.5362 23.5726 95.7447 23.3462 95.9064 23.0385C96.0766 22.7308 96.2 22.3419 96.2766 21.8718C96.3617 21.4017 96.4043 20.8462 96.4043 20.2051V19.2692C96.4043 18.6453 96.3574 18.0983 96.2638 17.6282C96.1702 17.1496 96.0383 16.7607 95.8681 16.4615C95.6979 16.1538 95.4851 15.9231 95.2298 15.7692C94.983 15.6068 94.7021 15.5256 94.3872 15.5256C94.0723 15.5256 93.7915 15.6068 93.5447 15.7692C93.3064 15.9231 93.0979 16.1538 92.9191 16.4615C92.7489 16.7607 92.617 17.1496 92.5234 17.6282C92.4383 18.0983 92.3957 18.6453 92.3957 19.2692ZM105.826 25.5264V32H102.264V12.7949H105.557L105.685 14.0665C105.991 13.6294 106.344 13.2824 106.745 13.0256C107.247 12.7009 107.843 12.5385 108.532 12.5385C109.281 12.5385 109.932 12.6752 110.485 12.9487C111.047 13.2222 111.511 13.6368 111.877 14.1923C112.251 14.7393 112.532 15.4359 112.719 16.2821C112.906 17.1282 113 18.1197 113 19.2564V20.1795C113 21.265 112.906 22.2265 112.719 23.0641C112.532 23.8932 112.251 24.5983 111.877 25.1795C111.511 25.7521 111.051 26.188 110.498 26.4872C109.945 26.7778 109.298 26.9231 108.557 26.9231C107.868 26.9231 107.272 26.7607 106.77 26.4359C106.416 26.1966 106.101 25.8934 105.826 25.5264ZM105.826 22.9909C105.948 23.2146 106.101 23.4057 106.285 23.5641C106.583 23.812 106.987 23.9359 107.498 23.9359C107.864 23.9359 108.166 23.859 108.404 23.7051C108.651 23.5513 108.851 23.3205 109.004 23.0128C109.157 22.7051 109.264 22.3162 109.323 21.8462C109.383 21.3761 109.413 20.8205 109.413 20.1795V19.2564C109.413 18.5897 109.379 18.0214 109.311 17.5513C109.243 17.0812 109.132 16.6966 108.979 16.3974C108.826 16.0983 108.626 15.8803 108.379 15.7436C108.132 15.6068 107.83 15.5385 107.472 15.5385C107.123 15.5385 106.817 15.6068 106.553 15.7436C106.298 15.8803 106.089 16.0812 105.928 16.3462C105.892 16.4031 105.858 16.4631 105.826 16.526V22.9909Z" fill="#CA191D"/>
</svg>
