<svg width="14" height="9" viewBox="0 0 14 9" fill="none" xmlns="http://www.w3.org/2000/svg">
<path d="M13.8601 0.881943L13.1588 0.147051C13.0653 0.0489138 12.9577 0 12.8359 0C12.7145 0 12.6069 0.0489138 12.5135 0.147051L7.00007 5.92419L1.48692 0.147205C1.39342 0.0490684 1.28582 0.00015438 1.16426 0.00015438C1.04265 0.00015438 0.93504 0.0490684 0.841585 0.147205L0.14033 0.882149C0.0466783 0.98008 0 1.09284 0 1.22027C0 1.3476 0.0468257 1.46036 0.14033 1.55829L6.6774 8.40861C6.77086 8.50659 6.87851 8.55556 7.00007 8.55556C7.12163 8.55556 7.22909 8.50659 7.3225 8.40861L13.8601 1.55829C13.9536 1.46031 14 1.34755 14 1.22027C14 1.09284 13.9536 0.98008 13.8601 0.881943Z" fill="black"/>
</svg>
