<svg width="27" height="26" viewBox="0 0 27 26" fill="none" xmlns="http://www.w3.org/2000/svg">
<path d="M13.5107 0.729004C6.53822 0.729004 0.885742 6.38148 0.885742 13.354C0.885742 20.3265 6.53822 25.979 13.5107 25.979C20.4833 25.979 26.1357 20.3265 26.1357 13.354C26.1357 6.38148 20.4833 0.729004 13.5107 0.729004ZM20.6126 6.59679L17.7858 19.8721C17.7328 20.1327 17.4358 20.2605 17.2103 20.1192L12.8633 17.2361L10.5767 19.3639C10.3732 19.538 10.058 19.4532 9.96943 19.2003L8.48066 14.5048L4.48286 12.8653C4.17615 12.7255 4.1805 12.237 4.4949 12.1149L20.101 6.16565C20.3821 6.05658 20.6725 6.30134 20.6126 6.59679Z" fill="#2A99D8"/>
<path d="M10.4501 17.8078L10.704 15.3941L17.7544 8.50244L9.24316 14.0919L10.4501 17.8078Z" fill="#2A99D8"/>
</svg>
